<?xml version="1.0" standalone="no"?>
<svg xmlns:xlink="http://www.w3.org/1999/xlink" id="wave" style="transform:rotate(180deg); transition: 0.3s" viewBox="0 0 1440 300" version="1.1" xmlns="http://www.w3.org/2000/svg"><defs><linearGradient id="sw-gradient-0" x1="0" x2="0" y1="1" y2="0"><stop stop-color="rgba(69, 31, 128, 1)" offset="0%"/><stop stop-color="rgba(69, 31, 128, 1)" offset="100%"/></linearGradient></defs><path style="transform:translate(0, 0px); opacity:1" fill="url(#sw-gradient-0)" d="M0,30L60,70C120,110,240,190,360,200C480,210,600,150,720,140C840,130,960,170,1080,180C1200,190,1320,170,1440,140C1560,110,1680,70,1800,65C1920,60,2040,90,2160,125C2280,160,2400,200,2520,185C2640,170,2760,100,2880,90C3000,80,3120,130,3240,125C3360,120,3480,60,3600,75C3720,90,3840,180,3960,200C4080,220,4200,170,4320,125C4440,80,4560,40,4680,55C4800,70,4920,140,5040,150C5160,160,5280,110,5400,110C5520,110,5640,160,5760,165C5880,170,6000,130,6120,135C6240,140,6360,190,6480,200C6600,210,6720,180,6840,175C6960,170,7080,190,7200,175C7320,160,7440,110,7560,115C7680,120,7800,180,7920,190C8040,200,8160,160,8280,160C8400,160,8520,200,8580,220L8640,240L8640,300L8580,300C8520,300,8400,300,8280,300C8160,300,8040,300,7920,300C7800,300,7680,300,7560,300C7440,300,7320,300,7200,300C7080,300,6960,300,6840,300C6720,300,6600,300,6480,300C6360,300,6240,300,6120,300C6000,300,5880,300,5760,300C5640,300,5520,300,5400,300C5280,300,5160,300,5040,300C4920,300,4800,300,4680,300C4560,300,4440,300,4320,300C4200,300,4080,300,3960,300C3840,300,3720,300,3600,300C3480,300,3360,300,3240,300C3120,300,3000,300,2880,300C2760,300,2640,300,2520,300C2400,300,2280,300,2160,300C2040,300,1920,300,1800,300C1680,300,1560,300,1440,300C1320,300,1200,300,1080,300C960,300,840,300,720,300C600,300,480,300,360,300C240,300,120,300,60,300L0,300Z"/></svg>